<svg width="259" height="96" viewBox="0 0 259 96" fill="none" xmlns="http://www.w3.org/2000/svg">
<path d="M5.97944 53.9794C2.67708 50.6771 2.67708 45.3229 5.97944 42.0206L42.0206 5.97943C45.3229 2.67708 50.6771 2.67708 53.9794 5.97943L90.0206 42.0206C93.3229 45.3229 93.3229 50.6771 90.0206 53.9794L53.9794 90.0206C50.6771 93.3229 45.3229 93.3229 42.0206 90.0206L5.97944 53.9794Z" fill="#FF6F6F"/>
<path d="M44.6543 54.591C43.8863 54.591 43.2563 54.471 42.7643 54.231C42.2723 53.979 41.9063 53.649 41.6663 53.241C41.4263 52.833 41.3063 52.383 41.3063 51.891C41.3063 51.063 41.6303 50.391 42.2783 49.875C42.9263 49.359 43.8983 49.101 45.1943 49.101H47.4623V48.885C47.4623 48.273 47.2883 47.823 46.9403 47.535C46.5923 47.247 46.1603 47.103 45.6443 47.103C45.1763 47.103 44.7683 47.217 44.4203 47.445C44.0723 47.661 43.8563 47.985 43.7723 48.417H41.5223C41.5823 47.769 41.7983 47.205 42.1703 46.725C42.5543 46.245 43.0463 45.879 43.6463 45.627C44.2463 45.363 44.9183 45.231 45.6623 45.231C46.9343 45.231 47.9363 45.549 48.6683 46.185C49.4003 46.821 49.7663 47.721 49.7663 48.885V54.375H47.8043L47.5883 52.935C47.3243 53.415 46.9523 53.811 46.4723 54.123C46.0043 54.435 45.3983 54.591 44.6543 54.591ZM45.1763 52.791C45.8363 52.791 46.3463 52.575 46.7063 52.143C47.0783 51.711 47.3123 51.177 47.4083 50.541H45.4463C44.8343 50.541 44.3963 50.655 44.1323 50.883C43.8683 51.099 43.7363 51.369 43.7363 51.693C43.7363 52.041 43.8683 52.311 44.1323 52.503C44.3963 52.695 44.7443 52.791 45.1763 52.791ZM53.2069 44.061C52.7869 44.061 52.4389 43.935 52.1629 43.683C51.8989 43.431 51.7669 43.113 51.7669 42.729C51.7669 42.345 51.8989 42.033 52.1629 41.793C52.4389 41.541 52.7869 41.415 53.2069 41.415C53.6269 41.415 53.9689 41.541 54.2329 41.793C54.5089 42.033 54.6469 42.345 54.6469 42.729C54.6469 43.113 54.5089 43.431 54.2329 43.683C53.9689 43.935 53.6269 44.061 53.2069 44.061ZM52.0549 54.375V45.447H54.3589V54.375H52.0549Z" fill="white"/>
<path d="M112.035 63.5L123.555 32H130.035L141.555 63.5H135.435L132.915 56.21H120.63L118.065 63.5H112.035ZM122.205 51.71H131.34L126.75 38.615L122.205 51.71ZM158.076 64.04C154.896 64.04 152.166 63.365 149.886 62.015C147.606 60.635 145.851 58.73 144.621 56.3C143.391 53.84 142.776 51.005 142.776 47.795C142.776 44.585 143.391 41.75 144.621 39.29C145.851 36.83 147.606 34.91 149.886 33.53C152.166 32.15 154.896 31.46 158.076 31.46C161.856 31.46 164.946 32.405 167.346 34.295C169.776 36.155 171.291 38.78 171.891 42.17H165.546C165.156 40.46 164.316 39.125 163.026 38.165C161.766 37.175 160.086 36.68 157.986 36.68C155.076 36.68 152.796 37.67 151.146 39.65C149.496 41.63 148.671 44.345 148.671 47.795C148.671 51.245 149.496 53.96 151.146 55.94C152.796 57.89 155.076 58.865 157.986 58.865C160.086 58.865 161.766 58.415 163.026 57.515C164.316 56.585 165.156 55.31 165.546 53.69H171.891C171.291 56.93 169.776 59.465 167.346 61.295C164.946 63.125 161.856 64.04 158.076 64.04ZM176.99 63.5V32H183.83L193.865 51.98L203.765 32H210.605V63.5H204.845V41.765L196.07 59H191.525L182.75 41.765V63.5H176.99ZM224.604 63.5L235.359 32H241.209L251.784 63.5H247.779L238.374 34.79H238.194L228.564 63.5H224.604ZM229.914 53.645L230.994 50.585H245.259L246.339 53.645H229.914ZM253.167 63.5V32H256.947V63.5H253.167Z" fill="#333333"/>
</svg>
