<svg xmlns="http://www.w3.org/2000/svg" width="884" height="884" fill="none" viewBox="0 0 884 884"><path fill="#E981A0" d="M55.0606 497.061C24.6515 466.652 24.6515 417.349 55.0606 386.94L386.939 55.0609C417.349 24.6517 466.652 24.6517 497.061 55.0609L828.939 386.94C859.349 417.349 859.349 466.652 828.939 497.061L497.061 828.94C466.652 859.349 417.349 859.349 386.939 828.94L55.0606 497.061Z"/><path fill="#fff" d="M252.837 502.047C242.662 502.047 233.578 499.576 225.583 494.634C217.589 489.692 211.266 482.934 206.615 474.358C201.963 465.782 199.638 456.043 199.638 445.142C199.638 434.24 201.963 424.574 206.615 416.144C211.266 407.568 217.589 400.882 225.583 396.085C233.578 391.143 242.662 388.672 252.837 388.672C260.977 388.672 268.099 390.199 274.204 393.251C280.308 396.303 285.25 400.591 289.03 406.115V342.45H316.937V499.431H292.082L289.03 483.951C285.541 488.748 280.89 492.963 275.076 496.597C269.407 500.23 261.994 502.047 252.837 502.047ZM258.724 477.628C267.735 477.628 275.076 474.648 280.744 468.689C286.559 462.584 289.466 454.808 289.466 445.36C289.466 435.912 286.559 428.208 280.744 422.249C275.076 416.144 267.735 413.092 258.724 413.092C249.857 413.092 242.517 416.071 236.703 422.031C230.889 427.99 227.981 435.694 227.981 445.142C227.981 454.59 230.889 462.366 236.703 468.471C242.517 474.576 249.857 477.628 258.724 477.628Z"/><path fill="#fff" d="M390.052 502.047C380.459 502.047 372.028 500.521 364.761 497.469C357.493 494.271 351.679 489.91 347.318 484.387C342.958 478.864 340.341 472.468 339.469 465.2H367.595C368.467 469.416 370.793 473.05 374.572 476.102C378.496 479.009 383.511 480.463 389.616 480.463C395.721 480.463 400.154 479.227 402.916 476.756C405.823 474.285 407.276 471.451 407.276 468.253C407.276 463.602 405.241 460.477 401.171 458.878C397.102 457.133 391.433 455.462 384.165 453.863C379.514 452.846 374.79 451.61 369.993 450.156C365.197 448.703 360.763 446.886 356.694 444.706C352.769 442.38 349.571 439.473 347.1 435.985C344.629 432.351 343.394 427.918 343.394 422.685C343.394 413.092 347.173 405.025 354.731 398.484C362.435 391.943 373.191 388.672 387 388.672C399.791 388.672 409.965 391.652 417.524 397.612C425.227 403.571 429.806 411.783 431.259 422.249H404.878C403.279 414.254 397.247 410.257 386.782 410.257C381.549 410.257 377.479 411.275 374.572 413.31C371.81 415.345 370.429 417.888 370.429 420.941C370.429 424.138 372.537 426.682 376.752 428.572C380.967 430.461 386.563 432.205 393.54 433.804C401.099 435.549 408.003 437.511 414.253 439.691C420.649 441.726 425.736 444.851 429.515 449.066C433.294 453.136 435.184 459.023 435.184 466.727C435.329 473.413 433.585 479.445 429.951 484.823C426.317 490.201 421.085 494.416 414.253 497.469C407.422 500.521 399.355 502.047 390.052 502.047Z"/><path fill="#fff" d="M505.692 467.163C500.46 467.163 495.59 466.581 491.085 465.419L483.017 473.486C485.488 474.794 488.832 475.884 493.047 476.756C497.262 477.628 504.094 478.5 513.541 479.372C527.931 480.681 538.397 484.096 544.938 489.62C551.479 495.143 554.749 502.774 554.749 512.513C554.749 518.908 553.005 524.94 549.516 530.609C546.028 536.423 540.65 541.075 533.382 544.563C526.114 548.197 516.812 550.014 505.474 550.014C490.067 550.014 477.639 547.107 468.191 541.293C458.744 535.624 454.02 527.048 454.02 515.565C454.02 505.827 458.744 497.396 468.191 490.274C465.284 488.966 462.741 487.585 460.56 486.131C458.526 484.678 456.709 483.152 455.11 481.553V476.538L474.078 456.479C465.648 449.066 461.433 439.546 461.433 427.918C461.433 420.65 463.177 414.036 466.665 408.077C470.299 402.117 475.386 397.393 481.927 393.905C488.468 390.417 496.39 388.672 505.692 388.672C511.797 388.672 517.466 389.544 522.699 391.289H563.688V408.295L545.156 409.603C548.063 415.127 549.516 421.231 549.516 427.918C549.516 435.185 547.772 441.799 544.284 447.758C540.795 453.718 535.708 458.442 529.022 461.93C522.481 465.419 514.704 467.163 505.692 467.163ZM505.692 445.796C511.361 445.796 516.012 444.27 519.646 441.217C523.425 438.165 525.315 433.804 525.315 428.136C525.315 422.467 523.425 418.106 519.646 415.054C516.012 412.001 511.361 410.475 505.692 410.475C499.733 410.475 494.936 412.001 491.303 415.054C487.669 418.106 485.852 422.467 485.852 428.136C485.852 433.804 487.669 438.165 491.303 441.217C494.936 444.27 499.733 445.796 505.692 445.796ZM479.529 512.731C479.529 518.109 482 522.106 486.942 524.722C492.029 527.484 498.207 528.865 505.474 528.865C512.451 528.865 518.12 527.411 522.481 524.504C526.841 521.743 529.022 517.963 529.022 513.167C529.022 509.242 527.568 505.972 524.661 503.356C521.899 500.739 516.303 499.14 507.873 498.559C501.913 498.123 496.39 497.469 491.303 496.597C487.087 498.922 484.035 501.466 482.145 504.228C480.401 506.989 479.529 509.824 479.529 512.731Z"/><path fill="#fff" d="M584.038 499.431V391.289H608.675L610.856 409.603C614.199 403.208 618.995 398.12 625.246 394.341C631.641 390.562 639.127 388.672 647.703 388.672C661.075 388.672 671.468 392.888 678.881 401.318C686.294 409.748 690 422.103 690 438.383V499.431H662.092V440.999C662.092 431.697 660.203 424.574 656.424 419.632C652.645 414.69 646.758 412.219 638.763 412.219C630.914 412.219 624.446 414.981 619.359 420.505C614.417 426.028 611.946 433.732 611.946 443.616V499.431H584.038Z"/></svg>