<svg width="355" height="96" viewBox="0 0 355 96" fill="none" xmlns="http://www.w3.org/2000/svg">
<path d="M5.47944 53.9794C2.17708 50.6771 2.17709 45.3229 5.47944 42.0206L41.5206 5.97944C44.8229 2.67709 50.1771 2.67709 53.4794 5.97944L89.5206 42.0206C92.8229 45.3229 92.8229 50.6771 89.5206 53.9794L53.4794 90.0206C50.1771 93.3229 44.8229 93.3229 41.5206 90.0206L5.47944 53.9794Z" fill="#FF94B4"/>
<path d="M32.0748 54.591C31.2348 54.591 30.4848 54.387 29.8248 53.979C29.1648 53.571 28.6428 53.013 28.2588 52.305C27.8748 51.597 27.6828 50.793 27.6828 49.893C27.6828 48.993 27.8748 48.195 28.2588 47.499C28.6428 46.791 29.1648 46.239 29.8248 45.843C30.4848 45.435 31.2348 45.231 32.0748 45.231C32.7468 45.231 33.3348 45.357 33.8388 45.609C34.3428 45.861 34.7508 46.215 35.0628 46.671V41.415H37.3668V54.375H35.3148L35.0628 53.097C34.7748 53.493 34.3908 53.841 33.9108 54.141C33.4428 54.441 32.8308 54.591 32.0748 54.591ZM32.5608 52.575C33.3048 52.575 33.9108 52.329 34.3788 51.837C34.8588 51.333 35.0988 50.691 35.0988 49.911C35.0988 49.131 34.8588 48.495 34.3788 48.003C33.9108 47.499 33.3048 47.247 32.5608 47.247C31.8288 47.247 31.2228 47.493 30.7428 47.985C30.2628 48.477 30.0228 49.113 30.0228 49.893C30.0228 50.673 30.2628 51.315 30.7428 51.819C31.2228 52.323 31.8288 52.575 32.5608 52.575ZM43.403 54.591C42.611 54.591 41.915 54.465 41.315 54.213C40.715 53.949 40.235 53.589 39.875 53.133C39.515 52.677 39.299 52.149 39.227 51.549H41.549C41.621 51.897 41.813 52.197 42.125 52.449C42.449 52.689 42.863 52.809 43.367 52.809C43.871 52.809 44.237 52.707 44.465 52.503C44.705 52.299 44.825 52.065 44.825 51.801C44.825 51.417 44.657 51.159 44.321 51.027C43.985 50.883 43.517 50.745 42.917 50.613C42.533 50.529 42.143 50.427 41.747 50.307C41.351 50.187 40.985 50.037 40.649 49.857C40.325 49.665 40.061 49.425 39.857 49.137C39.653 48.837 39.551 48.471 39.551 48.039C39.551 47.247 39.863 46.581 40.487 46.041C41.123 45.501 42.011 45.231 43.151 45.231C44.207 45.231 45.047 45.477 45.671 45.969C46.307 46.461 46.685 47.139 46.805 48.003H44.627C44.495 47.343 43.997 47.013 43.133 47.013C42.701 47.013 42.365 47.097 42.125 47.265C41.897 47.433 41.783 47.643 41.783 47.895C41.783 48.159 41.957 48.369 42.305 48.525C42.653 48.681 43.115 48.825 43.691 48.957C44.315 49.101 44.885 49.263 45.401 49.443C45.929 49.611 46.349 49.869 46.661 50.217C46.973 50.553 47.129 51.039 47.129 51.675C47.141 52.227 46.997 52.725 46.697 53.169C46.397 53.613 45.965 53.961 45.401 54.213C44.837 54.465 44.171 54.591 43.403 54.591ZM52.95 51.711C52.518 51.711 52.116 51.663 51.744 51.567L51.078 52.233C51.282 52.341 51.558 52.431 51.906 52.503C52.254 52.575 52.818 52.647 53.598 52.719C54.786 52.827 55.65 53.109 56.19 53.565C56.73 54.021 57 54.651 57 55.455C57 55.983 56.856 56.481 56.568 56.949C56.28 57.429 55.836 57.813 55.236 58.101C54.636 58.401 53.868 58.551 52.932 58.551C51.66 58.551 50.634 58.311 49.854 57.831C49.074 57.363 48.684 56.655 48.684 55.707C48.684 54.903 49.074 54.207 49.854 53.619C49.614 53.511 49.404 53.397 49.224 53.277C49.056 53.157 48.906 53.031 48.774 52.899V52.485L50.34 50.829C49.644 50.217 49.296 49.431 49.296 48.471C49.296 47.871 49.44 47.325 49.728 46.833C50.028 46.341 50.448 45.951 50.988 45.663C51.528 45.375 52.182 45.231 52.95 45.231C53.454 45.231 53.922 45.303 54.354 45.447H57.738V46.851L56.208 46.959C56.448 47.415 56.568 47.919 56.568 48.471C56.568 49.071 56.424 49.617 56.136 50.109C55.848 50.601 55.428 50.991 54.876 51.279C54.336 51.567 53.694 51.711 52.95 51.711ZM52.95 49.947C53.418 49.947 53.802 49.821 54.102 49.569C54.414 49.317 54.57 48.957 54.57 48.489C54.57 48.021 54.414 47.661 54.102 47.409C53.802 47.157 53.418 47.031 52.95 47.031C52.458 47.031 52.062 47.157 51.762 47.409C51.462 47.661 51.312 48.021 51.312 48.489C51.312 48.957 51.462 49.317 51.762 49.569C52.062 49.821 52.458 49.947 52.95 49.947ZM50.79 55.473C50.79 55.917 50.994 56.247 51.402 56.463C51.822 56.691 52.332 56.805 52.932 56.805C53.508 56.805 53.976 56.685 54.336 56.445C54.696 56.217 54.876 55.905 54.876 55.509C54.876 55.185 54.756 54.915 54.516 54.699C54.288 54.483 53.826 54.351 53.13 54.303C52.638 54.267 52.182 54.213 51.762 54.141C51.414 54.333 51.162 54.543 51.006 54.771C50.862 54.999 50.79 55.233 50.79 55.473ZM59.418 54.375V45.447H61.452L61.632 46.959C61.908 46.431 62.304 46.011 62.82 45.699C63.348 45.387 63.966 45.231 64.674 45.231C65.778 45.231 66.636 45.579 67.248 46.275C67.86 46.971 68.166 47.991 68.166 49.335V54.375H65.862V49.551C65.862 48.783 65.706 48.195 65.394 47.787C65.082 47.379 64.596 47.175 63.936 47.175C63.288 47.175 62.754 47.403 62.334 47.859C61.926 48.315 61.722 48.951 61.722 49.767V54.375H59.418Z" fill="white"/>
<path d="M112.035 63.5L123.555 32H130.035L141.555 63.5H135.435L132.915 56.21H120.63L118.065 63.5H112.035ZM122.205 51.71H131.34L126.75 38.615L122.205 51.71ZM158.076 64.04C154.896 64.04 152.166 63.365 149.886 62.015C147.606 60.635 145.851 58.73 144.621 56.3C143.391 53.84 142.776 51.005 142.776 47.795C142.776 44.585 143.391 41.75 144.621 39.29C145.851 36.83 147.606 34.91 149.886 33.53C152.166 32.15 154.896 31.46 158.076 31.46C161.856 31.46 164.946 32.405 167.346 34.295C169.776 36.155 171.291 38.78 171.891 42.17H165.546C165.156 40.46 164.316 39.125 163.026 38.165C161.766 37.175 160.086 36.68 157.986 36.68C155.076 36.68 152.796 37.67 151.146 39.65C149.496 41.63 148.671 44.345 148.671 47.795C148.671 51.245 149.496 53.96 151.146 55.94C152.796 57.89 155.076 58.865 157.986 58.865C160.086 58.865 161.766 58.415 163.026 57.515C164.316 56.585 165.156 55.31 165.546 53.69H171.891C171.291 56.93 169.776 59.465 167.346 61.295C164.946 63.125 161.856 64.04 158.076 64.04ZM176.99 63.5V32H183.83L193.865 51.98L203.765 32H210.605V63.5H204.845V41.765L196.07 59H191.525L182.75 41.765V63.5H176.99ZM226.404 63.5V32H236.079C239.769 32 242.814 32.645 245.214 33.935C247.614 35.195 249.384 37.01 250.524 39.38C251.694 41.72 252.279 44.54 252.279 47.84C252.279 51.08 251.694 53.87 250.524 56.21C249.384 58.55 247.614 60.35 245.214 61.61C242.814 62.87 239.769 63.5 236.079 63.5H226.404ZM230.184 60.35H235.989C239.049 60.35 241.479 59.855 243.279 58.865C245.109 57.845 246.414 56.405 247.194 54.545C247.974 52.655 248.364 50.42 248.364 47.84C248.364 45.2 247.974 42.935 247.194 41.045C246.414 39.155 245.109 37.7 243.279 36.68C241.479 35.66 239.049 35.15 235.989 35.15H230.184V60.35ZM265.971 64.04C263.841 64.04 261.951 63.56 260.301 62.6C258.651 61.61 257.346 60.245 256.386 58.505C255.456 56.735 254.991 54.68 254.991 52.34C254.991 49.97 255.456 47.915 256.386 46.175C257.316 44.435 258.606 43.085 260.256 42.125C261.936 41.135 263.871 40.64 266.061 40.64C268.251 40.64 270.126 41.135 271.686 42.125C273.246 43.085 274.446 44.36 275.286 45.95C276.126 47.51 276.546 49.22 276.546 51.08C276.546 51.38 276.546 51.71 276.546 52.07C276.546 52.4 276.531 52.775 276.501 53.195H257.826V50.27H272.811C272.721 48.14 272.031 46.49 270.741 45.32C269.481 44.15 267.891 43.565 265.971 43.565C264.681 43.565 263.481 43.85 262.371 44.42C261.261 44.99 260.361 45.845 259.671 46.985C259.011 48.125 258.681 49.565 258.681 51.305V52.565C258.681 54.425 259.026 55.97 259.716 57.2C260.406 58.43 261.306 59.36 262.416 59.99C263.556 60.59 264.741 60.89 265.971 60.89C267.531 60.89 268.836 60.53 269.886 59.81C270.936 59.09 271.701 58.1 272.181 56.84H275.916C275.526 58.22 274.881 59.45 273.981 60.53C273.081 61.61 271.956 62.465 270.606 63.095C269.286 63.725 267.741 64.04 265.971 64.04ZM287.905 64.04C286.135 64.04 284.545 63.74 283.135 63.14C281.725 62.51 280.585 61.64 279.715 60.53C278.875 59.39 278.35 58.055 278.14 56.525H282.01C282.19 57.275 282.49 58.01 282.91 58.73C283.36 59.42 283.99 59.99 284.8 60.44C285.64 60.89 286.69 61.115 287.95 61.115C289.03 61.115 289.915 60.965 290.605 60.665C291.295 60.335 291.805 59.915 292.135 59.405C292.495 58.865 292.675 58.28 292.675 57.65C292.675 56.87 292.45 56.24 292 55.76C291.55 55.28 290.89 54.875 290.02 54.545C289.18 54.185 288.175 53.84 287.005 53.51C286.105 53.24 285.19 52.955 284.26 52.655C283.33 52.325 282.475 51.935 281.695 51.485C280.945 51.035 280.33 50.45 279.85 49.73C279.4 49.01 279.175 48.11 279.175 47.03C279.175 45.83 279.505 44.75 280.165 43.79C280.825 42.83 281.755 42.065 282.955 41.495C284.185 40.925 285.625 40.64 287.275 40.64C289.645 40.64 291.58 41.225 293.08 42.395C294.61 43.565 295.495 45.26 295.735 47.48H292C291.88 46.22 291.4 45.26 290.56 44.6C289.75 43.91 288.64 43.565 287.23 43.565C285.85 43.565 284.785 43.865 284.035 44.465C283.315 45.065 282.955 45.815 282.955 46.715C282.955 47.315 283.135 47.81 283.495 48.2C283.855 48.59 284.425 48.935 285.205 49.235C286.015 49.505 287.035 49.835 288.265 50.225C289.645 50.645 290.95 51.11 292.18 51.62C293.44 52.13 294.46 52.805 295.24 53.645C296.05 54.455 296.455 55.565 296.455 56.975C296.485 58.355 296.14 59.585 295.42 60.665C294.73 61.715 293.74 62.54 292.45 63.14C291.19 63.74 289.675 64.04 287.905 64.04ZM299.937 63.5V41.18H303.717V63.5H299.937ZM301.827 36.725C301.077 36.725 300.447 36.47 299.937 35.96C299.427 35.45 299.172 34.82 299.172 34.07C299.172 33.35 299.427 32.735 299.937 32.225C300.447 31.715 301.077 31.46 301.827 31.46C302.547 31.46 303.162 31.715 303.672 32.225C304.182 32.735 304.437 33.365 304.437 34.115C304.437 34.835 304.182 35.45 303.672 35.96C303.162 36.47 302.547 36.725 301.827 36.725ZM318.219 73.04C316.209 73.04 314.424 72.77 312.864 72.23C311.304 71.72 310.089 70.955 309.219 69.935C308.349 68.945 307.914 67.73 307.914 66.29C307.914 65.63 308.049 64.955 308.319 64.265C308.619 63.575 309.114 62.9 309.804 62.24C310.524 61.55 311.529 60.905 312.819 60.305L315.339 61.835C313.809 62.495 312.804 63.185 312.324 63.905C311.844 64.625 311.604 65.42 311.604 66.29C311.604 67.07 311.844 67.745 312.324 68.315C312.834 68.915 313.584 69.365 314.574 69.665C315.564 69.965 316.779 70.115 318.219 70.115C319.689 70.115 320.874 69.935 321.774 69.575C322.674 69.215 323.334 68.72 323.754 68.09C324.174 67.46 324.384 66.74 324.384 65.93C324.384 64.97 323.994 64.205 323.214 63.635C322.464 63.095 321.024 62.765 318.894 62.645C317.124 62.525 315.639 62.36 314.439 62.15C313.269 61.94 312.294 61.7 311.514 61.43C310.734 61.13 310.074 60.8 309.534 60.44C309.024 60.08 308.559 59.705 308.139 59.315V58.28L312.504 53.915L314.664 54.995L311.289 59.18L311.604 57.65C311.874 57.83 312.159 58.01 312.459 58.19C312.789 58.37 313.239 58.55 313.809 58.73C314.379 58.88 315.129 59.03 316.059 59.18C317.019 59.33 318.249 59.465 319.749 59.585C321.759 59.735 323.379 60.065 324.609 60.575C325.839 61.055 326.724 61.73 327.264 62.6C327.834 63.47 328.119 64.535 328.119 65.795C328.119 66.935 327.759 68.06 327.039 69.17C326.349 70.28 325.269 71.195 323.799 71.915C322.359 72.665 320.499 73.04 318.219 73.04ZM318.174 56.48C316.284 56.48 314.679 56.135 313.359 55.445C312.039 54.725 311.034 53.765 310.344 52.565C309.654 51.365 309.309 50.03 309.309 48.56C309.309 47.09 309.654 45.77 310.344 44.6C311.034 43.4 312.039 42.44 313.359 41.72C314.679 41 316.284 40.64 318.174 40.64C320.064 40.64 321.669 41 322.989 41.72C324.309 42.44 325.314 43.4 326.004 44.6C326.694 45.77 327.039 47.09 327.039 48.56C327.039 50.03 326.694 51.365 326.004 52.565C325.314 53.765 324.309 54.725 322.989 55.445C321.669 56.135 320.064 56.48 318.174 56.48ZM318.174 53.6C319.764 53.6 321.024 53.18 321.954 52.34C322.914 51.47 323.394 50.21 323.394 48.56C323.394 46.88 322.914 45.62 321.954 44.78C321.024 43.94 319.764 43.52 318.174 43.52C316.584 43.52 315.309 43.94 314.349 44.78C313.389 45.62 312.909 46.88 312.909 48.56C312.909 50.21 313.389 51.47 314.349 52.34C315.309 53.18 316.584 53.6 318.174 53.6ZM321.774 43.925L320.649 41.18H329.919V43.25L321.774 43.925ZM332.878 63.5V41.18H336.208L336.568 44.69H336.748C337.528 43.46 338.548 42.485 339.808 41.765C341.068 41.015 342.583 40.64 344.353 40.64C346.063 40.64 347.563 41 348.853 41.72C350.143 42.41 351.133 43.49 351.823 44.96C352.543 46.4 352.903 48.23 352.903 50.45V63.5H349.123V50.855C349.123 48.545 348.628 46.805 347.638 45.635C346.648 44.465 345.223 43.88 343.363 43.88C342.073 43.88 340.918 44.195 339.898 44.825C338.908 45.455 338.113 46.37 337.513 47.57C336.943 48.74 336.658 50.195 336.658 51.935V63.5H332.878Z" fill="#333333"/>
</svg>
