<svg xmlns="http://www.w3.org/2000/svg" width="320" height="96" fill="none" viewBox="0 0 320 96"><path fill="#F9A857" d="M5.97943 53.9794C2.67708 50.6771 2.67708 45.3229 5.97943 42.0206L42.0206 5.97942C45.3229 2.67707 50.6771 2.67707 53.9794 5.97942L90.0206 42.0206C93.3229 45.3229 93.3229 50.6771 90.0206 53.9794L53.9794 90.0206C50.6771 93.3229 45.3229 93.3229 42.0206 90.0206L5.97943 53.9794Z"/><path fill="#fff" d="M27.4884 54.1875V41.2275H29.7924V46.6275C30.0924 46.1355 30.4944 45.7515 30.9984 45.4755C31.5144 45.1875 32.1024 45.0435 32.7624 45.0435C33.8664 45.0435 34.7184 45.3915 35.3184 46.0875C35.9304 46.7835 36.2364 47.8035 36.2364 49.1475V54.1875H33.9504V49.3635C33.9504 48.5955 33.7944 48.0075 33.4824 47.5995C33.1824 47.1915 32.7024 46.9875 32.0424 46.9875C31.3944 46.9875 30.8544 47.2155 30.4224 47.6715C30.0024 48.1275 29.7924 48.7635 29.7924 49.5795V54.1875H27.4884ZM41.5175 54.4035C40.7495 54.4035 40.1195 54.2835 39.6275 54.0435C39.1355 53.7915 38.7695 53.4615 38.5295 53.0535C38.2895 52.6455 38.1695 52.1955 38.1695 51.7035C38.1695 50.8755 38.4935 50.2035 39.1415 49.6875C39.7895 49.1715 40.7615 48.9135 42.0575 48.9135H44.3255V48.6975C44.3255 48.0855 44.1515 47.6355 43.8035 47.3475C43.4555 47.0595 43.0235 46.9155 42.5075 46.9155C42.0395 46.9155 41.6315 47.0295 41.2835 47.2575C40.9355 47.4735 40.7195 47.7975 40.6355 48.2295H38.3855C38.4455 47.5815 38.6615 47.0175 39.0335 46.5375C39.4175 46.0575 39.9095 45.6915 40.5095 45.4395C41.1095 45.1755 41.7815 45.0435 42.5255 45.0435C43.7975 45.0435 44.7995 45.3615 45.5315 45.9975C46.2635 46.6335 46.6295 47.5335 46.6295 48.6975V54.1875H44.6675L44.4515 52.7475C44.1875 53.2275 43.8155 53.6235 43.3355 53.9355C42.8675 54.2475 42.2615 54.4035 41.5175 54.4035ZM42.0395 52.6035C42.6995 52.6035 43.2095 52.3875 43.5695 51.9555C43.9415 51.5235 44.1755 50.9895 44.2715 50.3535H42.3095C41.6975 50.3535 41.2595 50.4675 40.9955 50.6955C40.7315 50.9115 40.5995 51.1815 40.5995 51.5055C40.5995 51.8535 40.7315 52.1235 40.9955 52.3155C41.2595 52.5075 41.6075 52.6035 42.0395 52.6035ZM53.2022 54.4035C52.2902 54.4035 51.4862 54.2055 50.7902 53.8095C50.0942 53.4135 49.5422 52.8615 49.1342 52.1535C48.7382 51.4455 48.5402 50.6355 48.5402 49.7235C48.5402 48.8115 48.7382 48.0015 49.1342 47.2935C49.5422 46.5855 50.0942 46.0335 50.7902 45.6375C51.4862 45.2415 52.2902 45.0435 53.2022 45.0435C54.3422 45.0435 55.3022 45.3435 56.0822 45.9435C56.8622 46.5315 57.3602 47.3475 57.5762 48.3915H55.1462C55.0262 47.9595 54.7862 47.6235 54.4262 47.3835C54.0782 47.1315 53.6642 47.0055 53.1842 47.0055C52.5482 47.0055 52.0082 47.2455 51.5642 47.7255C51.1202 48.2055 50.8982 48.8715 50.8982 49.7235C50.8982 50.5755 51.1202 51.2415 51.5642 51.7215C52.0082 52.2015 52.5482 52.4415 53.1842 52.4415C53.6642 52.4415 54.0782 52.3215 54.4262 52.0815C54.7862 51.8415 55.0262 51.4995 55.1462 51.0555H57.5762C57.3602 52.0635 56.8622 52.8735 56.0822 53.4855C55.3022 54.0975 54.3422 54.4035 53.2022 54.4035ZM59.6212 54.1875V41.2275H61.9252V48.8775L65.0932 45.2595H67.8292L64.1752 49.3275L68.4232 54.1875H65.5432L61.9252 49.7055V54.1875H59.6212Z"/><path fill="#333" d="M112.035 63.5L123.555 32H130.035L141.555 63.5H135.435L132.915 56.21H120.63L118.065 63.5H112.035ZM122.205 51.71H131.34L126.75 38.615L122.205 51.71ZM158.076 64.04C154.896 64.04 152.166 63.365 149.886 62.015C147.606 60.635 145.851 58.73 144.621 56.3C143.391 53.84 142.776 51.005 142.776 47.795C142.776 44.585 143.391 41.75 144.621 39.29C145.851 36.83 147.606 34.91 149.886 33.53C152.166 32.15 154.896 31.46 158.076 31.46C161.856 31.46 164.946 32.405 167.346 34.295C169.776 36.155 171.291 38.78 171.891 42.17H165.546C165.156 40.46 164.316 39.125 163.026 38.165C161.766 37.175 160.086 36.68 157.986 36.68C155.076 36.68 152.796 37.67 151.146 39.65C149.496 41.63 148.671 44.345 148.671 47.795C148.671 51.245 149.496 53.96 151.146 55.94C152.796 57.89 155.076 58.865 157.986 58.865C160.086 58.865 161.766 58.415 163.026 57.515C164.316 56.585 165.156 55.31 165.546 53.69H171.891C171.291 56.93 169.776 59.465 167.346 61.295C164.946 63.125 161.856 64.04 158.076 64.04ZM176.99 63.5V32H183.83L193.865 51.98L203.765 32H210.605V63.5H204.845V41.765L196.07 59H191.525L182.75 41.765V63.5H176.99ZM246.519 63.5V32H250.299V63.5H246.519ZM226.404 63.5V32H230.184V63.5H226.404ZM229.464 49.01V45.905H247.464V49.01H229.464ZM261.688 64.04C259.918 64.04 258.433 63.725 257.233 63.095C256.033 62.465 255.133 61.625 254.533 60.575C253.963 59.525 253.678 58.385 253.678 57.155C253.678 55.625 254.068 54.335 254.848 53.285C255.658 52.235 256.783 51.44 258.223 50.9C259.693 50.33 261.418 50.045 263.398 50.045H269.428C269.428 48.575 269.203 47.36 268.753 46.4C268.303 45.44 267.658 44.735 266.818 44.285C265.978 43.805 264.973 43.565 263.803 43.565C262.333 43.565 261.058 43.94 259.978 44.69C258.898 45.44 258.238 46.595 257.998 48.155H254.128C254.308 46.535 254.833 45.17 255.703 44.06C256.603 42.95 257.743 42.11 259.123 41.54C260.533 40.94 262.093 40.64 263.803 40.64C265.933 40.64 267.688 41.03 269.068 41.81C270.478 42.56 271.513 43.625 272.173 45.005C272.863 46.355 273.208 47.945 273.208 49.775V63.5H270.058L269.698 59.675H269.518C269.098 60.395 268.603 61.025 268.033 61.565C267.493 62.105 266.893 62.555 266.233 62.915C265.573 63.275 264.853 63.545 264.073 63.725C263.323 63.935 262.528 64.04 261.688 64.04ZM262.363 60.845C263.503 60.845 264.508 60.635 265.378 60.215C266.248 59.765 266.983 59.165 267.583 58.415C268.183 57.665 268.633 56.825 268.933 55.895C269.263 54.935 269.428 53.96 269.428 52.97H263.713C262.243 52.97 261.058 53.15 260.158 53.51C259.258 53.84 258.613 54.305 258.223 54.905C257.833 55.505 257.638 56.195 257.638 56.975C257.638 57.755 257.818 58.445 258.178 59.045C258.568 59.615 259.108 60.065 259.798 60.395C260.518 60.695 261.373 60.845 262.363 60.845ZM287.114 64.04C284.774 64.04 282.764 63.56 281.084 62.6C279.434 61.61 278.159 60.245 277.259 58.505C276.359 56.735 275.909 54.68 275.909 52.34C275.909 50 276.389 47.96 277.349 46.22C278.339 44.45 279.674 43.085 281.354 42.125C283.064 41.135 284.984 40.64 287.114 40.64C289.784 40.64 292.019 41.33 293.819 42.71C295.619 44.09 296.759 45.935 297.239 48.245H293.369C293.069 46.715 292.334 45.56 291.164 44.78C289.994 43.97 288.629 43.565 287.069 43.565C285.809 43.565 284.624 43.895 283.514 44.555C282.404 45.185 281.504 46.145 280.814 47.435C280.124 48.725 279.779 50.36 279.779 52.34C279.779 53.75 279.959 54.995 280.319 56.075C280.709 57.125 281.234 58.01 281.894 58.73C282.554 59.45 283.319 59.99 284.189 60.35C285.089 60.71 286.049 60.89 287.069 60.89C288.119 60.89 289.079 60.725 289.949 60.395C290.819 60.035 291.554 59.525 292.154 58.865C292.754 58.175 293.159 57.365 293.369 56.435H297.239C296.759 58.685 295.619 60.515 293.819 61.925C292.019 63.335 289.784 64.04 287.114 64.04ZM314.403 63.5L303.558 51.215L313.323 41.18H317.958L306.798 52.565V49.865L319.218 63.5H314.403ZM300.408 63.5V32H304.188V63.5H300.408Z"/></svg>