<?xml version="1.0" encoding="UTF-8"?>
<!DOCTYPE svg PUBLIC "-//W3C//DTD SVG 1.1//EN" "http://www.w3.org/Graphics/SVG/1.1/DTD/svg11.dtd">
<svg xmlns="http://www.w3.org/2000/svg" version="1.1" width="295px" height="268px" style="shape-rendering:geometricPrecision; text-rendering:geometricPrecision; image-rendering:optimizeQuality; fill-rule:evenodd; clip-rule:evenodd" xmlns:xlink="http://www.w3.org/1999/xlink">
<g><path style="opacity:1" fill="#080808" d="M 178.5,37.5 C 178.427,39.0269 179.094,40.0269 180.5,40.5C 190.798,62.1804 187.132,81.347 169.5,98C 152.862,109.443 135.862,110.276 118.5,100.5C 118.027,99.0937 117.027,98.427 115.5,98.5C 115.027,97.0937 114.027,96.427 112.5,96.5C 97.0961,82.0023 92.9295,64.669 100,44.5C 101.026,41.7613 102.526,39.428 104.5,37.5C 105.906,37.0269 106.573,36.0269 106.5,34.5C 107.833,32.5 109.5,30.8333 111.5,29.5C 113.749,28.9202 115.415,27.5869 116.5,25.5C 119.247,22.7933 122.58,21.1266 126.5,20.5C 129.152,20.5905 131.485,19.9238 133.5,18.5C 152.588,15.303 167.588,21.6364 178.5,37.5 Z"/></g>
<g><path style="opacity:0.988" fill="#595a5a" d="M 133.5,18.5 C 131.485,19.9238 129.152,20.5905 126.5,20.5C 128.438,18.8372 130.772,18.1706 133.5,18.5 Z"/></g>
<g><path style="opacity:0.976" fill="#575758" d="M 116.5,25.5 C 115.415,27.5869 113.749,28.9202 111.5,29.5C 112.585,27.4131 114.251,26.0798 116.5,25.5 Z"/></g>
<g><path style="opacity:0.447" fill="#9c9d9e" d="M 106.5,34.5 C 106.573,36.0269 105.906,37.0269 104.5,37.5C 104.427,35.9731 105.094,34.9731 106.5,34.5 Z"/></g>
<g><path style="opacity:0.341" fill="#a2a4a4" d="M 178.5,37.5 C 179.906,37.9731 180.573,38.9731 180.5,40.5C 179.094,40.0269 178.427,39.0269 178.5,37.5 Z"/></g>
<g><path style="opacity:1" fill="#0b0b0b" d="M 80.5,63.5 C 81.0347,65.4456 82.368,66.4456 84.5,66.5C 86.5,67.8333 88.1667,69.5 89.5,71.5C 89.427,73.0269 90.0937,74.0269 91.5,74.5C 100.908,91.642 98.2411,106.809 83.5,120C 75.5083,125.334 66.8416,127.167 57.5,125.5C 55.4855,124.076 53.1522,123.41 50.5,123.5C 37.3231,117.513 30.3231,107.18 29.5,92.5C 33.0777,67.4212 47.411,56.5878 72.5,60C 75.3098,60.9064 77.9764,62.0731 80.5,63.5 Z"/></g>
<g><path style="opacity:1" fill="#0b0b0b" d="M 247.5,74.5 C 247.427,76.0269 248.094,77.0269 249.5,77.5C 255.812,90.3851 254.478,102.385 245.5,113.5C 244.5,113.833 243.833,114.5 243.5,115.5C 238.752,121.548 232.418,125.048 224.5,126C 201.539,126.545 188.539,115.378 185.5,92.5C 185.732,85.8038 187.732,79.8038 191.5,74.5C 192.906,74.0269 193.573,73.0269 193.5,71.5C 194.167,70.1667 195.167,69.1667 196.5,68.5C 198.749,67.9202 200.415,66.5869 201.5,64.5C 203.181,62.9925 205.181,61.9925 207.5,61.5C 210.152,61.5905 212.485,60.9238 214.5,59.5C 228.639,57.7383 239.639,62.7383 247.5,74.5 Z"/></g>
<g><path style="opacity:0.988" fill="#5b5b5c" d="M 214.5,59.5 C 212.485,60.9238 210.152,61.5905 207.5,61.5C 209.515,60.0762 211.848,59.4095 214.5,59.5 Z"/></g>
<g><path style="opacity:0.973" fill="#7a7b7b" d="M 80.5,63.5 C 82.2303,64.0256 83.5637,65.0256 84.5,66.5C 82.368,66.4456 81.0347,65.4456 80.5,63.5 Z"/></g>
<g><path style="opacity:0.976" fill="#565657" d="M 201.5,64.5 C 200.415,66.5869 198.749,67.9202 196.5,68.5C 197.585,66.4131 199.251,65.0798 201.5,64.5 Z"/></g>
<g><path style="opacity:0.486" fill="#939495" d="M 89.5,71.5 C 90.9063,71.9731 91.573,72.9731 91.5,74.5C 90.0937,74.0269 89.427,73.0269 89.5,71.5 Z"/></g>
<g><path style="opacity:0.486" fill="#939495" d="M 193.5,71.5 C 193.573,73.0269 192.906,74.0269 191.5,74.5C 191.427,72.9731 192.094,71.9731 193.5,71.5 Z"/></g>
<g><path style="opacity:0.38" fill="#999a9b" d="M 247.5,74.5 C 248.906,74.9731 249.573,75.9731 249.5,77.5C 248.094,77.0269 247.427,76.0269 247.5,74.5 Z"/></g>
<g><path style="opacity:0.667" fill="#98999a" d="M 112.5,96.5 C 114.027,96.427 115.027,97.0937 115.5,98.5C 113.973,98.573 112.973,97.9063 112.5,96.5 Z"/></g>
<g><path style="opacity:0.459" fill="#8f9091" d="M 115.5,98.5 C 117.027,98.427 118.027,99.0937 118.5,100.5C 116.973,100.573 115.973,99.9063 115.5,98.5 Z"/></g>
<g><path style="opacity:0.004" fill="#bdbfbf" d="M 245.5,113.5 C 245.5,114.833 244.833,115.5 243.5,115.5C 243.833,114.5 244.5,113.833 245.5,113.5 Z"/></g>
<g><path style="opacity:1" fill="#050505" d="M 191.5,127.5 C 191.427,129.027 192.094,130.027 193.5,130.5C 195.95,132.629 197.617,135.296 198.5,138.5C 198.41,141.152 199.076,143.485 200.5,145.5C 201.658,174.095 201.824,202.761 201,231.5C 199.833,232.667 198.667,233.833 197.5,235C 160.5,235.667 123.5,235.667 86.5,235C 84.3333,234.167 82.8333,232.667 82,230.5C 81.3333,202.5 81.3333,174.5 82,146.5C 83.1645,138.5 86.6645,131.834 92.5,126.5C 94.4044,126.262 95.7377,125.262 96.5,123.5C 100.963,119.389 106.296,116.889 112.5,116C 131.833,115.333 151.167,115.333 170.5,116C 179.015,117.254 186.015,121.087 191.5,127.5 Z"/></g>
<g><path style="opacity:0.667" fill="#797a7b" d="M 50.5,123.5 C 53.1522,123.41 55.4855,124.076 57.5,125.5C 54.8478,125.59 52.5145,124.924 50.5,123.5 Z"/></g>
<g><path style="opacity:0.765" fill="#737475" d="M 96.5,123.5 C 95.7377,125.262 94.4044,126.262 92.5,126.5C 93.2623,124.738 94.5956,123.738 96.5,123.5 Z"/></g>
<g><path style="opacity:0.776" fill="#848686" d="M 191.5,127.5 C 192.906,127.973 193.573,128.973 193.5,130.5C 192.094,130.027 191.427,129.027 191.5,127.5 Z"/></g>
<g><path style="opacity:0.341" fill="#a8a9aa" d="M 45.5,135.5 C 53.6499,134.507 61.9832,134.174 70.5,134.5C 70.7373,135.791 70.404,136.791 69.5,137.5C 61.9032,135.533 53.9032,134.866 45.5,135.5 Z"/></g>
<g><path style="opacity:0.34" fill="#a8aaaa" d="M 237.5,135.5 C 229.097,134.866 221.097,135.533 213.5,137.5C 212.596,136.791 212.263,135.791 212.5,134.5C 221.017,134.174 229.35,134.507 237.5,135.5 Z"/></g>
<g><path style="opacity:1" fill="#020202" d="M 45.5,135.5 C 53.9032,134.866 61.9032,135.533 69.5,137.5C 69.7845,139.415 69.4511,141.081 68.5,142.5C 67.6981,143.952 67.1981,145.618 67,147.5C 66.1697,175.336 66.3364,203.003 67.5,230.5C 67.5,230.833 67.5,231.167 67.5,231.5C 67.5,232.5 67.5,233.5 67.5,234.5C 55.1667,234.5 42.8333,234.5 30.5,234.5C 27.5185,234.818 25.1852,233.818 23.5,231.5C 22.7377,229.738 21.4044,228.738 19.5,228.5C 16.7055,226.181 14.8722,223.181 14,219.5C 13.3333,200.833 13.3333,182.167 14,163.5C 15.1379,158.557 17.3045,154.224 20.5,150.5C 21.9063,150.027 22.573,149.027 22.5,147.5C 28.3124,140.093 35.979,136.093 45.5,135.5 Z"/></g>
<g><path style="opacity:1" fill="#080808" d="M 237.5,135.5 C 247.383,136.538 255.549,140.871 262,148.5C 263.705,150.577 264.872,152.91 265.5,155.5C 265.427,157.027 266.094,158.027 267.5,158.5C 269.983,166.762 270.983,175.262 270.5,184C 269.932,193.375 269.932,202.709 270.5,212C 270.188,219.623 267.188,225.957 261.5,231C 258.928,233.287 255.928,234.453 252.5,234.5C 240.167,234.5 227.833,234.5 215.5,234.5C 215.5,233.5 215.5,232.5 215.5,231.5C 215.667,203.498 215.5,175.498 215,147.5C 214.39,144.173 213.89,140.839 213.5,137.5C 221.097,135.533 229.097,134.866 237.5,135.5 Z"/></g>
<g><path style="opacity:0.933" fill="#737475" d="M 198.5,138.5 C 199.924,140.515 200.59,142.848 200.5,145.5C 199.076,143.485 198.41,141.152 198.5,138.5 Z"/></g>
<g><path style="opacity:0.584" fill="#848585" d="M 22.5,147.5 C 22.573,149.027 21.9063,150.027 20.5,150.5C 20.427,148.973 21.0937,147.973 22.5,147.5 Z"/></g>
<g><path style="opacity:0.625" fill="#606161" d="M 68.5,142.5 C 67.549,171.815 67.2157,201.148 67.5,230.5C 66.3364,203.003 66.1697,175.336 67,147.5C 67.1981,145.618 67.6981,143.952 68.5,142.5 Z"/></g>
<g><path style="opacity:0.173" fill="#b2b4b4" d="M 265.5,155.5 C 266.906,155.973 267.573,156.973 267.5,158.5C 266.094,158.027 265.427,157.027 265.5,155.5 Z"/></g>
<g><path style="opacity:0.843" fill="#7b7c7d" d="M 19.5,228.5 C 21.4044,228.738 22.7377,229.738 23.5,231.5C 21.5956,231.262 20.2623,230.262 19.5,228.5 Z"/></g>
<g><path style="opacity:0.576" fill="#727373" d="M 67.5,231.5 C 68.4345,232.568 68.7678,233.901 68.5,235.5C 55.6557,235.829 42.989,235.495 30.5,234.5C 42.8333,234.5 55.1667,234.5 67.5,234.5C 67.5,233.5 67.5,232.5 67.5,231.5 Z"/></g>
<g><path style="opacity:0.576" fill="#727474" d="M 215.5,231.5 C 215.5,232.5 215.5,233.5 215.5,234.5C 227.833,234.5 240.167,234.5 252.5,234.5C 240.011,235.495 227.344,235.829 214.5,235.5C 214.232,233.901 214.566,232.568 215.5,231.5 Z"/></g>
</svg>
