<svg width="351" height="118" viewBox="0 0 351 118" fill="none" xmlns="http://www.w3.org/2000/svg">
<path d="M52.4312 14.7778L91.7546 44.5278V104.028H13.1078V44.5278L52.4312 14.7778ZM52.4312 -1.75L0 37.9167V117.25H104.862V37.9167L52.4312 -1.75ZM49.1542 41.2222V61.0556H45.8773V41.2222H39.3234V61.0556H36.0464V41.2222H29.4925V61.0556C29.4925 66.5428 33.8837 70.9722 39.3234 70.9722V97.4167H45.8773V70.9722C51.317 70.9722 55.7081 66.5428 55.7081 61.0556V41.2222H49.1542ZM58.9851 54.4444V74.2778H65.539V97.4167H72.0929V41.2222C64.8836 41.2222 58.9851 47.1722 58.9851 54.4444Z" fill="black"/>
<path d="M140.219 50.2344V100H131.64V50.2344H140.219ZM189.096 74.5703V93.5742C188.389 94.5085 187.284 95.5339 185.78 96.6504C184.299 97.7441 182.328 98.6898 179.867 99.4873C177.406 100.285 174.341 100.684 170.673 100.684C167.551 100.684 164.691 100.16 162.094 99.1113C159.496 98.0404 157.252 96.4795 155.36 94.4287C153.492 92.3779 152.045 89.8828 151.02 86.9434C149.994 83.9811 149.481 80.6087 149.481 76.8262V73.374C149.481 69.6143 149.949 66.2646 150.883 63.3252C151.84 60.363 153.207 57.8564 154.984 55.8057C156.762 53.7549 158.904 52.2054 161.41 51.1572C163.939 50.0863 166.799 49.5508 169.989 49.5508C174.068 49.5508 177.44 50.2344 180.106 51.6016C182.795 52.946 184.869 54.8145 186.327 57.207C187.785 59.5996 188.708 62.334 189.096 65.4102H180.688C180.414 63.6784 179.879 62.1289 179.081 60.7617C178.306 59.3945 177.19 58.3236 175.731 57.5488C174.296 56.7513 172.427 56.3525 170.126 56.3525C168.144 56.3525 166.4 56.7285 164.896 57.4805C163.393 58.2324 162.139 59.3376 161.137 60.7959C160.157 62.2542 159.416 64.0316 158.915 66.1279C158.414 68.2243 158.163 70.6169 158.163 73.3057V76.8262C158.163 79.5605 158.448 81.9873 159.018 84.1064C159.61 86.2256 160.453 88.0143 161.547 89.4727C162.663 90.931 164.019 92.0361 165.614 92.7881C167.209 93.5173 169.009 93.8818 171.015 93.8818C172.974 93.8818 174.581 93.7223 175.834 93.4033C177.087 93.0615 178.078 92.6628 178.808 92.207C179.56 91.7285 180.141 91.2728 180.551 90.8398V80.9619H170.194V74.5703H189.096ZM207.177 50.2344V100H198.598V50.2344H207.177ZM227.479 72.0068V78.8086H204.989V72.0068H227.479ZM230.316 50.2344V57.0703H204.989V50.2344H230.316ZM234.008 81.9189V81.1328C234.008 78.4668 234.395 75.9945 235.17 73.7158C235.945 71.4144 237.061 69.4206 238.52 67.7344C240.001 66.0254 241.801 64.7038 243.92 63.7695C246.062 62.8125 248.477 62.334 251.166 62.334C253.878 62.334 256.293 62.8125 258.412 63.7695C260.554 64.7038 262.366 66.0254 263.847 67.7344C265.328 69.4206 266.456 71.4144 267.23 73.7158C268.005 75.9945 268.393 78.4668 268.393 81.1328V81.9189C268.393 84.585 268.005 87.0573 267.23 89.3359C266.456 91.6146 265.328 93.6084 263.847 95.3174C262.366 97.0036 260.565 98.3252 258.446 99.2822C256.327 100.216 253.923 100.684 251.234 100.684C248.523 100.684 246.096 100.216 243.954 99.2822C241.835 98.3252 240.035 97.0036 238.554 95.3174C237.073 93.6084 235.945 91.6146 235.17 89.3359C234.395 87.0573 234.008 84.585 234.008 81.9189ZM242.245 81.1328V81.9189C242.245 83.5824 242.416 85.1546 242.758 86.6357C243.1 88.1169 243.635 89.4157 244.364 90.5322C245.093 91.6488 246.028 92.526 247.167 93.1641C248.306 93.8021 249.662 94.1211 251.234 94.1211C252.761 94.1211 254.083 93.8021 255.199 93.1641C256.339 92.526 257.273 91.6488 258.002 90.5322C258.731 89.4157 259.267 88.1169 259.608 86.6357C259.973 85.1546 260.155 83.5824 260.155 81.9189V81.1328C260.155 79.4922 259.973 77.9427 259.608 76.4844C259.267 75.0033 258.72 73.693 257.968 72.5537C257.239 71.4144 256.304 70.5257 255.165 69.8877C254.049 69.2269 252.715 68.8965 251.166 68.8965C249.617 68.8965 248.272 69.2269 247.133 69.8877C246.016 70.5257 245.093 71.4144 244.364 72.5537C243.635 73.693 243.1 75.0033 242.758 76.4844C242.416 77.9427 242.245 79.4922 242.245 81.1328ZM273.725 81.9189V81.1328C273.725 78.4668 274.112 75.9945 274.887 73.7158C275.661 71.4144 276.778 69.4206 278.236 67.7344C279.717 66.0254 281.518 64.7038 283.637 63.7695C285.779 62.8125 288.194 62.334 290.883 62.334C293.594 62.334 296.01 62.8125 298.129 63.7695C300.271 64.7038 302.082 66.0254 303.563 67.7344C305.045 69.4206 306.173 71.4144 306.947 73.7158C307.722 75.9945 308.109 78.4668 308.109 81.1328V81.9189C308.109 84.585 307.722 87.0573 306.947 89.3359C306.173 91.6146 305.045 93.6084 303.563 95.3174C302.082 97.0036 300.282 98.3252 298.163 99.2822C296.044 100.216 293.64 100.684 290.951 100.684C288.24 100.684 285.813 100.216 283.671 99.2822C281.552 98.3252 279.752 97.0036 278.271 95.3174C276.789 93.6084 275.661 91.6146 274.887 89.3359C274.112 87.0573 273.725 84.585 273.725 81.9189ZM281.962 81.1328V81.9189C281.962 83.5824 282.133 85.1546 282.475 86.6357C282.816 88.1169 283.352 89.4157 284.081 90.5322C284.81 91.6488 285.744 92.526 286.884 93.1641C288.023 93.8021 289.379 94.1211 290.951 94.1211C292.478 94.1211 293.799 93.8021 294.916 93.1641C296.055 92.526 296.99 91.6488 297.719 90.5322C298.448 89.4157 298.983 88.1169 299.325 86.6357C299.69 85.1546 299.872 83.5824 299.872 81.9189V81.1328C299.872 79.4922 299.69 77.9427 299.325 76.4844C298.983 75.0033 298.437 73.693 297.685 72.5537C296.955 71.4144 296.021 70.5257 294.882 69.8877C293.765 69.2269 292.432 68.8965 290.883 68.8965C289.333 68.8965 287.989 69.2269 286.85 69.8877C285.733 70.5257 284.81 71.4144 284.081 72.5537C283.352 73.693 282.816 75.0033 282.475 76.4844C282.133 77.9427 281.962 79.4922 281.962 81.1328ZM337.572 92.3438V47.5H345.844V100H338.358L337.572 92.3438ZM313.51 81.9189V81.2012C313.51 78.3984 313.84 75.8464 314.501 73.5449C315.162 71.2207 316.119 69.2269 317.372 67.5635C318.625 65.8773 320.152 64.5898 321.952 63.7012C323.752 62.7897 325.78 62.334 328.036 62.334C330.269 62.334 332.229 62.7669 333.915 63.6328C335.601 64.4987 337.037 65.7406 338.222 67.3584C339.407 68.9535 340.352 70.8675 341.059 73.1006C341.765 75.3109 342.266 77.7718 342.562 80.4834V82.7734C342.266 85.4167 341.765 87.832 341.059 90.0195C340.352 92.207 339.407 94.0983 338.222 95.6934C337.037 97.2884 335.59 98.5189 333.881 99.3848C332.195 100.251 330.224 100.684 327.968 100.684C325.735 100.684 323.718 100.216 321.918 99.2822C320.141 98.348 318.625 97.0378 317.372 95.3516C316.119 93.6654 315.162 91.6829 314.501 89.4043C313.84 87.1029 313.51 84.6077 313.51 81.9189ZM321.747 81.2012V81.9189C321.747 83.6051 321.895 85.1774 322.191 86.6357C322.51 88.0941 323 89.3815 323.661 90.498C324.322 91.5918 325.176 92.4577 326.225 93.0957C327.296 93.7109 328.572 94.0186 330.053 94.0186C331.921 94.0186 333.459 93.6084 334.667 92.7881C335.875 91.9678 336.82 90.8626 337.504 89.4727C338.21 88.0599 338.689 86.4876 338.939 84.7559V78.5693C338.803 77.2249 338.518 75.9717 338.085 74.8096C337.675 73.6475 337.117 72.6335 336.41 71.7676C335.704 70.8789 334.826 70.1953 333.778 69.7168C332.753 69.2155 331.534 68.9648 330.121 68.9648C328.617 68.9648 327.341 69.2839 326.293 69.9219C325.245 70.5599 324.379 71.4372 323.695 72.5537C323.035 73.6702 322.545 74.9691 322.226 76.4502C321.907 77.9313 321.747 79.515 321.747 81.2012Z" fill="black"/>
</svg>
